<?xml version="1.0" encoding="UTF-8"?>
<svg version="1.1" xmlns="http://www.w3.org/2000/svg" width="200" height="200">
<path d="M0 0 C66 0 132 0 200 0 C200 66 200 132 200 200 C134 200 68 200 0 200 C0 134 0 68 0 0 Z " fill="#FEFEFE" transform="translate(0,0)"/>
<path d="M0 0 C0.40605469 0.74636719 0.81210938 1.49273438 1.23046875 2.26171875 C3.46832479 5.72471451 5.69397946 6.86595724 9.3125 8.8125 C10.57035346 9.50383173 11.82816472 10.19524025 13.0859375 10.88671875 C14.39061413 11.59116597 15.69530164 12.29559303 17 13 C28.9459321 19.53455305 37.36415371 24.7005926 44 37 C44.99 36.01 44.99 36.01 46 35 C48.65540367 39.57319521 48.42191689 43.83963188 48 49 C47 52.625 47 52.625 46 55 C46.7425 55.556875 46.7425 55.556875 47.5 56.125 C49.62732389 58.78415486 49.27676873 60.67877525 49 64 C48.67 64.99 48.34 65.98 48 67 C48.95939668 68.69036558 49.96642853 70.35394174 51 72 C51.66666667 74 52.33333333 76 53 78 C53.556875 78.825 54.11375 79.65 54.6875 80.5 C56 83 56 83 56 86 C54.75596862 89.73209414 52.82756102 91.30708475 50 94 C49.484375 95.03125 48.96875 96.0625 48.4375 97.125 C46.94005021 100.11989957 45.89009518 101.37432146 43 103 C42.01 103 41.02 103 40 103 C40 102.01 40 101.02 40 100 C36.06718759 101.57312496 34.30942959 102.4739697 32.125 106.1875 C31.75375 107.115625 31.3825 108.04375 31 109 C31.99 108.01 32.98 107.02 34 106 C34.99 106.33 35.98 106.66 37 107 C38.05512234 120.95106211 38.05512234 120.95106211 35.72265625 125.48046875 C33.9237939 127.32827974 32.19939739 128.65707872 30 130 C29.32839844 130.42667969 28.65679687 130.85335937 27.96484375 131.29296875 C23.90409462 133.58545333 20.74089667 134.47408967 16 134 C16 133.34 16 132.68 16 132 C15.113125 132.33 14.22625 132.66 13.3125 133 C10.25465039 133.92312441 8.14713657 134.17011549 5 134 C2.00742975 133.80442968 2.00742975 133.80442968 -0.5 135.0625 C-3 136 -3 136 -6 135 C-5.67 134.2575 -5.34 133.515 -5 132.75 C-3.77217129 129.86116688 -3.77217129 129.86116688 -4 126 C-4.680625 126.9075 -5.36125 127.815 -6.0625 128.75 C-10.38936875 133.92024147 -15.30688276 136.17648015 -22 137 C-24.45754141 137.06578002 -26.91668778 137.08569162 -29.375 137.0625 C-30.62023437 137.05347656 -31.86546875 137.04445312 -33.1484375 137.03515625 C-34.55996094 137.01775391 -34.55996094 137.01775391 -36 137 C-36 136.67 -36 136.34 -36 136 C-35.33613281 135.82984375 -34.67226562 135.6596875 -33.98828125 135.484375 C-28.83004654 134.06868431 -24.94122403 132.8098499 -21 129 C-21.60585937 129.2165625 -22.21171875 129.433125 -22.8359375 129.65625 C-31.07602344 132.39449394 -38.94484159 133.58810707 -47.12890625 130.03125 C-53.78892749 126.36059111 -58.52023437 120.71431287 -62 114 C-62.6640625 111.22265625 -62.6640625 111.22265625 -63 109 C-61.948125 109.78375 -60.89625 110.5675 -59.8125 111.375 C-55.24826811 114.61679851 -51.70090249 116.32576586 -46 116 C-46.886875 115.278125 -47.77375 114.55625 -48.6875 113.8125 C-51.63128209 111.36509334 -54.29268947 108.70731053 -57 106 C-63.68575707 99.82989972 -69.14099195 98.65367438 -78 98 C-73.91921368 92.9977458 -70.30719307 91.92065781 -64 91 C-71.77625994 90.39515237 -71.77625994 90.39515237 -79.0625 92.5625 C-81.47280917 95.59482444 -82.67176781 98.36483823 -84 102 C-84.66 102 -85.32 102 -86 102 C-92.52801539 91.64521697 -94.5060292 81.2746298 -92.53125 69.11328125 C-89.81885143 57.79547529 -84.07264346 48.3488412 -75 41 C-74.34 41 -73.68 41 -73 41 C-73.515625 40.113125 -74.03125 39.22625 -74.5625 38.3125 C-76.0868937 34.79976669 -76.14947895 33.55293493 -75 30 C-73.824375 30.05285156 -72.64875 30.10570313 -71.4375 30.16015625 C-67.15934929 30.15357737 -63.95727332 29.12905768 -60 27.4375 C-59.36698975 27.17227539 -58.73397949 26.90705078 -58.08178711 26.63378906 C-54.61920836 25.17219803 -51.18747809 23.64150022 -47.75390625 22.11328125 C-46.70299805 21.64740601 -46.70299805 21.64740601 -45.63085938 21.17211914 C-44.29406379 20.57614689 -42.96045652 19.97294738 -41.63085938 19.36108398 C-34.25720985 16.03968072 -27.58039776 14.68047191 -19.5 14.875 C-18.77296875 14.88402344 -18.0459375 14.89304687 -17.296875 14.90234375 C-15.5311028 14.92557759 -13.76550386 14.96143317 -12 15 C-12.04125 14.071875 -12.0825 13.14375 -12.125 12.1875 C-12 9 -12 9 -10 6 C-9.34 6 -8.68 6 -8 6 C-7.505 7.485 -7.505 7.485 -7 9 C-6.731875 8.071875 -6.46375 7.14375 -6.1875 6.1875 C-3.88235294 0 -3.88235294 0 0 0 Z " fill="#20335D" transform="translate(121,27)"/>
<path d="M0 0 C0.86625 0.165 1.7325 0.33 2.625 0.5 C3.53779461 1.91990273 4.44321552 3.3452608 5.3046875 4.796875 C8.9150157 9.45398475 15.2777956 11.79924343 20.40234375 14.48046875 C21.05871826 14.8254541 21.71509277 15.17043945 22.39135742 15.52587891 C23.68011137 16.19936189 24.97306804 16.86488443 26.27075195 17.52099609 C29.4292378 19.15580924 32.14389103 20.83867794 34.828125 23.18359375 C37.48237835 25.381879 38.46023193 25.79597321 41.625 26.5 C47.12384227 31.33560471 52.15571847 37.80048069 52.8984375 45.23828125 C52.96438408 50.11173352 52.50839132 54.70444713 51.625 59.5 C51.955 59.83 52.285 60.16 52.625 60.5 C52.65673414 63.2835375 52.55659925 66.05391063 52.46484375 68.8359375 C52.41432357 71.72973626 52.41432357 71.72973626 54.625 74.5 C55.29166667 76.5 55.95833333 78.5 56.625 80.5 C57.181875 81.428125 57.73875 82.35625 58.3125 83.3125 C60.08636139 87.6204491 59.99607011 91.05641132 58.625 95.5 C56.25 98.1875 56.25 98.1875 53.625 100.5 C52.8825 102.0159375 52.8825 102.0159375 52.125 103.5625 C50.39712607 106.94625312 48.80599295 108.45507596 45.625 110.5 C43.96759285 110.87668344 42.30093739 111.21694034 40.625 111.5 C40.74359375 112.50160156 40.8621875 113.50320312 40.984375 114.53515625 C42.32975761 127.65469509 42.32975761 127.65469509 37.625 133.5 C36.965 133.5 36.305 133.5 35.625 133.5 C35.625 134.16 35.625 134.82 35.625 135.5 C27.18887501 143.0180761 16.15626979 143.70953673 5.42578125 143.37231445 C0.17101887 143.28815219 -3.50307596 144.35826029 -8.1796875 146.609375 C-11.66639773 148.02391225 -14.66045673 147.77515135 -18.375 147.5 C-18.045 146.84 -17.715 146.18 -17.375 145.5 C-18.06126465 145.50523682 -18.7475293 145.51047363 -19.45458984 145.51586914 C-22.55305064 145.53660956 -25.65149686 145.54965076 -28.75 145.5625 C-29.83023438 145.57087891 -30.91046875 145.57925781 -32.0234375 145.58789062 C-33.0546875 145.59111328 -34.0859375 145.59433594 -35.1484375 145.59765625 C-36.10153809 145.60289307 -37.05463867 145.60812988 -38.03662109 145.61352539 C-40.375 145.5 -40.375 145.5 -42.375 144.5 C-42.045 143.18 -41.715 141.86 -41.375 140.5 C-42.1484375 140.1596875 -42.921875 139.819375 -43.71875 139.46875 C-54.36550239 134.51432067 -61.6597844 128.4128664 -66.375 117.5 C-67.51982061 114.19940832 -68.50623951 110.88322176 -69.375 107.5 C-74.37997609 107.05632068 -74.37997609 107.05632068 -78.75 109.1875 C-80.50934402 111.69118187 -81.03966723 113.48200506 -81.375 116.5 C-87.76887272 113.95650338 -91.53841101 106.75184187 -94.25 100.6875 C-98.47283294 88.72280666 -98.26543048 72.88739491 -93.00390625 61.375 C-86.17204035 49.3168386 -86.17204035 49.3168386 -81.16796875 46.06640625 C-79.09550487 44.57930592 -79.09550487 44.57930592 -78.8359375 41.72265625 C-78.79339844 40.15837891 -78.79339844 40.15837891 -78.75 38.5625 C-78.62355242 34.63776152 -78.42017085 31.89498362 -76.375 28.5 C-75.65957031 28.56960937 -74.94414063 28.63921875 -74.20703125 28.7109375 C-65.16657864 29.20213932 -59.30015826 26.55806296 -51.375 22.5 C-49.26028714 21.55984453 -47.13547201 20.64199891 -45 19.75 C-44.08476563 19.36328125 -43.16953125 18.9765625 -42.2265625 18.578125 C-35.74773043 16.12859397 -30.29000936 15.22233055 -23.4375 15.375 C-22.65826172 15.38402344 -21.87902344 15.39304687 -21.07617188 15.40234375 C-19.17564553 15.42566309 -17.27527992 15.46152414 -15.375 15.5 C-15.25640625 14.55511719 -15.1378125 13.61023437 -15.015625 12.63671875 C-14.375 9.5 -14.375 9.5 -12.125 7.3125 C-9.57932417 5.6346682 -6.99509951 4.057897 -4.375 2.5 C-2.375 0.5 -2.375 0.5 0 0 Z M-3.4375 6.1875 C-5.55375625 8.71335423 -6.01619018 10.27071161 -6.375 13.5 C-6.87 12.015 -6.87 12.015 -7.375 10.5 C-10.49285113 11.14644661 -10.49285113 11.14644661 -11.375 13.5 C-11.414992 15.49960012 -11.41846799 17.50047242 -11.375 19.5 C-12.37917969 19.45359375 -13.38335937 19.4071875 -14.41796875 19.359375 C-29.97807912 18.85181355 -41.93821475 23.99554604 -55.87109375 30.4765625 C-62.34082877 33.43572347 -67.29362414 34.74418537 -74.375 34.5 C-75.52447895 38.05293493 -75.4618937 39.29976669 -73.9375 42.8125 C-73.421875 43.699375 -72.90625 44.58625 -72.375 45.5 C-72.96539062 45.76941406 -73.55578125 46.03882813 -74.1640625 46.31640625 C-83.27343502 51.19297847 -88.28944834 61.38463347 -91.25 70.875 C-94.0678694 82.73704903 -92.57555337 93.59818384 -86.86328125 104.34375 C-86.37214844 105.0553125 -85.88101563 105.766875 -85.375 106.5 C-84.715 106.5 -84.055 106.5 -83.375 106.5 C-82.983125 105.4275 -82.59125 104.355 -82.1875 103.25 C-80.50581691 99.48150109 -79.17008662 97.43626868 -75.375 95.5 C-71.35196164 95.17962749 -67.40110489 95.26883608 -63.375 95.5 C-64.26251953 95.62955078 -64.26251953 95.62955078 -65.16796875 95.76171875 C-70.87264334 96.77608993 -73.6993564 97.99437236 -77.375 102.5 C-76.7459375 102.52578125 -76.116875 102.5515625 -75.46875 102.578125 C-62.94962331 103.40770568 -55.84829887 109.78460687 -47.375 118.5 C-46.385 119.49 -46.385 119.49 -45.375 120.5 C-52.38457545 119.92778976 -56.52176606 117.40215596 -62.375 113.5 C-60.01296915 122.71192033 -54.46606913 129.66828868 -46.375 134.5 C-37.5501457 138.72058249 -28.25562662 136.33639786 -19.375 133.5 C-24.61549929 137.1516245 -29.09531193 139.26648984 -35.375 140.5 C-35.375 140.83 -35.375 141.16 -35.375 141.5 C-19.66796646 141.98919808 -19.66796646 141.98919808 -6.375 134.5 C-4.49196038 132.35823993 -4.49196038 132.35823993 -3.375 130.5 C-3.83322468 133.96941546 -4.26631683 137.17395049 -5.375 140.5 C-1.65611761 139.99287967 1.35954239 139.38391785 4.625 137.5 C4.955 137.83 5.285 138.16 5.625 138.5 C7.1086107 138.40999622 8.58848907 138.25353182 10.0625 138.0625 C14.49841772 137.5 14.49841772 137.5 16.625 137.5 C16.625 137.83 16.625 138.16 16.625 138.5 C22.77299181 139.28820408 26.67754326 136.7718475 31.625 133.5 C32.25535156 133.13519531 32.88570313 132.77039063 33.53515625 132.39453125 C35.63877567 130.85784473 36.52684254 129.89406741 37.625 127.5 C38.12126386 122.11580389 37.97060888 116.88893839 37.625 111.5 C36.635 111.17 35.645 110.84 34.625 110.5 C33.635 111.49 32.645 112.48 31.625 113.5 C33.19812496 109.56718759 34.0989697 107.80942959 37.8125 105.625 C38.740625 105.25375 39.66875 104.8825 40.625 104.5 C40.625 105.49 40.625 106.48 40.625 107.5 C44.05278386 107.21435135 45.34742347 106.79390456 47.75 104.25 C48.92197417 102.53110455 50.05463551 100.78394082 51.125 99 C52.625 96.5 52.625 96.5 54.875 94.0625 C56.92346775 91.59547663 56.92346775 91.59547663 56.5625 88.4375 C55.61462543 85.46749301 54.48173547 83.95089083 52.625 81.5 C51.92008733 79.17793475 51.25287571 76.84406932 50.625 74.5 C50.0371875 73.3553125 50.0371875 73.3553125 49.4375 72.1875 C49.169375 71.630625 48.90125 71.07375 48.625 70.5 C48.955 69.84 49.285 69.18 49.625 68.5 C50.07579626 64.23553292 50.07579626 64.23553292 48.125 60.625 C47.3825 60.068125 47.3825 60.068125 46.625 59.5 C46.955 58.71625 47.285 57.9325 47.625 57.125 C49.04602048 51.97380074 49.81861494 46.20858775 47.609375 41.1953125 C47.28453125 40.63585938 46.9596875 40.07640625 46.625 39.5 C45.635 40.49 45.635 40.49 44.625 41.5 C44.24730469 40.79875 43.86960938 40.0975 43.48046875 39.375 C36.08650315 26.63036609 24.80752062 21.28536421 12.15405273 14.62329102 C10.76295288 13.88743774 10.76295288 13.88743774 9.34375 13.13671875 C8.50779297 12.70061279 7.67183594 12.26450684 6.81054688 11.81518555 C3.37927938 9.75036897 1.9022245 8.33167351 0.625 4.5 C-1.56116018 4.28892074 -1.56116018 4.28892074 -3.4375 6.1875 Z " fill="#CFC7C8" transform="translate(120.375,22.5)"/>
<path d="M0 0 C5.15320341 2.11579888 9.89536392 4.68128857 14.3515625 8.0234375 C13.6915625 6.7034375 13.0315625 5.3834375 12.3515625 4.0234375 C16.93318207 4.53250634 19.84007417 5.61962672 23.6015625 8.2734375 C24.45234375 8.85609375 25.303125 9.43875 26.1796875 10.0390625 C28.58017339 12.2323122 29.39736055 13.94878676 30.3515625 17.0234375 C28.3515625 17.0234375 26.3515625 17.0234375 24.3515625 17.0234375 C24.9290625 17.77109375 25.5065625 18.51875 26.1015625 19.2890625 C26.8440625 20.27390625 27.5865625 21.25875 28.3515625 22.2734375 C29.0940625 23.24796875 29.8365625 24.2225 30.6015625 25.2265625 C32.3515625 28.0234375 32.3515625 28.0234375 32.3515625 32.0234375 C27.52796061 32.21638158 23.85509512 31.78091364 19.3515625 30.0234375 C19.3515625 30.6834375 19.3515625 31.3434375 19.3515625 32.0234375 C15.4765625 31.1484375 15.4765625 31.1484375 14.3515625 30.0234375 C14.54227813 31.99278458 14.54227813 31.99278458 15.3515625 34.0234375 C17.1729385 35.04655953 17.1729385 35.04655953 19.3515625 35.5859375 C21.5390625 36.21484375 21.5390625 36.21484375 23.3515625 37.0234375 C23.6815625 38.0134375 24.0115625 39.0034375 24.3515625 40.0234375 C25.3415625 40.3534375 26.3315625 40.6834375 27.3515625 41.0234375 C26.36283792 43.71995909 25.75943797 44.81367297 23.1640625 46.1484375 C19.97214358 47.14147894 17.37429847 47.22173939 14.0390625 47.1484375 C12.97042969 47.13039062 11.90179688 47.11234375 10.80078125 47.09375 C9.58841797 47.05894531 9.58841797 47.05894531 8.3515625 47.0234375 C8.0215625 46.3634375 7.6915625 45.7034375 7.3515625 45.0234375 C8.3415625 44.6934375 9.3315625 44.3634375 10.3515625 44.0234375 C6.8865625 42.5384375 6.8865625 42.5384375 3.3515625 41.0234375 C3.3515625 40.3634375 3.3515625 39.7034375 3.3515625 39.0234375 C4.6715625 39.0234375 5.9915625 39.0234375 7.3515625 39.0234375 C7.0215625 38.3634375 6.6915625 37.7034375 6.3515625 37.0234375 C7.0115625 36.6934375 7.6715625 36.3634375 8.3515625 36.0234375 C7.0315625 35.0334375 5.7115625 34.0434375 4.3515625 33.0234375 C4.6815625 32.0334375 5.0115625 31.0434375 5.3515625 30.0234375 C0.55891984 29.27458708 -2.09330568 31.32392038 -5.87890625 33.9296875 C-7.6484375 35.0234375 -7.6484375 35.0234375 -9.6484375 35.0234375 C-9.3184375 36.3434375 -8.9884375 37.6634375 -8.6484375 39.0234375 C-10.49634557 41.03203323 -11.97661359 41.95077343 -14.70703125 42.24609375 C-19.21228789 42.05615882 -22.07628293 41.22532195 -25.2734375 37.9609375 C-27.42163058 35.01467269 -27.65195339 33.96894128 -27.8984375 30.1484375 C-26.65543756 24.3097589 -22.80717577 19.18217577 -18.6484375 15.0234375 C-18.3184375 16.0134375 -17.9884375 17.0034375 -17.6484375 18.0234375 C-16.9884375 18.0234375 -16.3284375 18.0234375 -15.6484375 18.0234375 C-16.81051785 10.70233128 -19.2076925 5.93046623 -23.6484375 0.0234375 C-17.46449762 -3.06853244 -6.51512698 -1.74387767 0 0 Z " fill="#C3C8D2" transform="translate(134.6484375,71.9765625)"/>
<path d="M0 0 C1.990375 1.93410998 3.85054257 3.80888891 5.5234375 6.0234375 C5.5234375 6.6834375 5.5234375 7.3434375 5.5234375 8.0234375 C4.0644949 7.54612912 2.60630254 7.06652708 1.1484375 6.5859375 C0.33632812 6.31910156 -0.47578125 6.05226563 -1.3125 5.77734375 C-3.4765625 5.0234375 -3.4765625 5.0234375 -5.4765625 4.0234375 C-8.4913022 3.78391685 -11.51585923 3.83823302 -14.5390625 3.8359375 C-15.77172852 3.81756836 -15.77172852 3.81756836 -17.02929688 3.79882812 C-22.75793299 3.78530656 -27.94335941 4.55108661 -33.4765625 6.0234375 C-32.72632813 6.03761719 -31.97609375 6.05179688 -31.203125 6.06640625 C-23.53433224 6.42376813 -18.05224645 8.08093673 -11.4765625 12.0234375 C-11.4765625 12.3534375 -11.4765625 12.6834375 -11.4765625 13.0234375 C-12.02892578 13.05783936 -12.58128906 13.09224121 -13.15039062 13.12768555 C-35.66350607 14.63151316 -55.78088016 19.805628 -72.4765625 36.0234375 C-77.9575247 42.34924936 -81.04059107 49.06492215 -83.4765625 57.0234375 C-83.8065625 57.0234375 -84.1365625 57.0234375 -84.4765625 57.0234375 C-85.10021846 45.00073656 -84.20079196 36.98961872 -76.1640625 27.7734375 C-74.62280179 26.16942188 -73.06163865 24.58416948 -71.4765625 23.0234375 C-70.88617188 22.43433594 -70.29578125 21.84523438 -69.6875 21.23828125 C-64.48537354 16.41830152 -58.17669826 13.25681609 -51.4765625 11.0234375 C-52.5903125 10.7346875 -53.7040625 10.4459375 -54.8515625 10.1484375 C-58.4765625 9.0234375 -58.4765625 9.0234375 -60.4765625 7.0234375 C-59.49558594 6.65992188 -58.51460937 6.29640625 -57.50390625 5.921875 C-56.14049724 5.41440562 -54.77722666 4.90656423 -53.4140625 4.3984375 C-52.69613525 4.13135986 -51.97820801 3.86428223 -51.23852539 3.58911133 C-47.57685724 2.21813981 -43.93419584 0.81702257 -40.3203125 -0.67578125 C-39.66297119 -0.94632324 -39.00562988 -1.21686523 -38.32836914 -1.49560547 C-36.50915771 -2.24964668 -34.69391256 -3.01323612 -32.87890625 -3.77734375 C-21.95398408 -7.62803388 -9.34868353 -7.46125215 0 0 Z " fill="#04AEEE" transform="translate(117.4765625,55.9765625)"/>
<path d="M0 0 C4.03837057 0.26481119 6.35406471 1.22555008 9.8125 3.25 C10.1425 2.59 10.4725 1.93 10.8125 1.25 C13.00708816 3.44458816 13.42056985 4.70683722 14.3125 7.625 C15.04310953 9.99948096 15.75796738 12.14521946 16.90625 14.3515625 C17.8125 16.25 17.8125 16.25 17.8125 19.25 C18.4725 19.58 19.1325 19.91 19.8125 20.25 C15.9375 19.375 15.9375 19.375 14.8125 18.25 C15.00321563 20.21934708 15.00321563 20.21934708 15.8125 22.25 C17.633876 23.27312203 17.633876 23.27312203 19.8125 23.8125 C22 24.44140625 22 24.44140625 23.8125 25.25 C24.3075 26.735 24.3075 26.735 24.8125 28.25 C25.8025 28.58 26.7925 28.91 27.8125 29.25 C26.82377542 31.94652159 26.22037547 33.04023547 23.625 34.375 C20.43308108 35.36804144 17.83523597 35.44830189 14.5 35.375 C13.43136719 35.35695312 12.36273438 35.33890625 11.26171875 35.3203125 C10.04935547 35.28550781 10.04935547 35.28550781 8.8125 35.25 C8.4825 34.59 8.1525 33.93 7.8125 33.25 C8.8025 32.92 9.7925 32.59 10.8125 32.25 C8.5025 31.26 6.1925 30.27 3.8125 29.25 C3.8125 28.59 3.8125 27.93 3.8125 27.25 C5.1325 27.25 6.4525 27.25 7.8125 27.25 C7.4825 26.59 7.1525 25.93 6.8125 25.25 C7.4725 24.92 8.1325 24.59 8.8125 24.25 C7.4925 23.26 6.1725 22.27 4.8125 21.25 C5.1425 20.26 5.4725 19.27 5.8125 18.25 C1.01985734 17.50114958 -1.63236818 19.55048288 -5.41796875 22.15625 C-7.1875 23.25 -7.1875 23.25 -9.1875 23.25 C-8.8575 24.57 -8.5275 25.89 -8.1875 27.25 C-10.08365243 29.31103525 -11.54644197 30.19445707 -14.3515625 30.4375 C-16.80998965 30.3093735 -18.85561929 30.04495933 -21.1875 29.25 C-24.17929538 25.35159996 -24.53219682 22.07575555 -24.1875 17.25 C-23.465625 17.745 -22.74375 18.24 -22 18.75 C-18.8628133 20.42316624 -17.66222914 20.91185317 -14.1875 20.25 C-12.35854812 19.08807763 -10.65916897 17.80604655 -8.93359375 16.49609375 C-3.88370551 12.89225852 1.82920808 12.73543689 7.8125 13.25 C8.4725 13.58 9.1325 13.91 9.8125 14.25 C9.3175 11.775 9.3175 11.775 8.8125 9.25 C8.255625 9.188125 7.69875 9.12625 7.125 9.0625 C3.87455385 7.92045135 2.19662628 5.69372943 -0.1875 3.25 C-2.35370544 1.95480005 -2.35370544 1.95480005 -4.1875 1.25 C-3.1875 0.25 -3.1875 0.25 0 0 Z " fill="#8D94A2" transform="translate(134.1875,83.75)"/>
<path d="M0 0 C4.49257689 2.77963596 8.41550617 6.11679835 12 10 C11.29875 9.855625 10.5975 9.71125 9.875 9.5625 C6.92443859 8.98521625 3.96729849 8.48304859 1 8 C1.62648437 8.51949219 2.25296875 9.03898437 2.8984375 9.57421875 C3.71570313 10.27160156 4.53296875 10.96898438 5.375 11.6875 C6.59316406 12.71423828 6.59316406 12.71423828 7.8359375 13.76171875 C10.09534323 16.09861313 11.02155853 17.9302743 12 21 C11.45585449 20.76812988 10.91170898 20.53625977 10.35107422 20.29736328 C7.86006422 19.23750553 5.36755123 18.18122772 2.875 17.125 C1.59109375 16.57779297 1.59109375 16.57779297 0.28125 16.01953125 C-11.84882407 10.88757684 -24.2359492 7.18740205 -37.0625 12.0625 C-37.96097656 12.44535156 -38.85945313 12.82820313 -39.78515625 13.22265625 C-40.51605469 13.47917969 -41.24695312 13.73570313 -42 14 C-42.66 13.67 -43.32 13.34 -44 13 C-34.57494766 6.11503269 -26.62167332 3.62995986 -15 3 C-18.60993172 1.86519473 -21.9842327 1.89984233 -25.75 1.9375 C-27.50570312 1.95103516 -27.50570312 1.95103516 -29.296875 1.96484375 C-30.18890625 1.97644531 -31.0809375 1.98804687 -32 2 C-22.98551626 -5.3451349 -10.26494197 -4.72011862 0 0 Z " fill="#04AAE9" transform="translate(89,87)"/>
<path d="M0 0 C0.94101563 0.88816406 1.88203125 1.77632812 2.8515625 2.69140625 C7.98355193 7.08933284 13.94687658 9.43831346 20.0859375 12.12304688 C28.37690754 15.87687997 36.79066844 20.58133688 41 29 C41.75 32.875 41.75 32.875 42 36 C43.32 36.33 44.64 36.66 46 37 C44.3125 39 44.3125 39 42 41 C39.35546875 41.125 39.35546875 41.125 37 41 C36.93683594 40.21496094 36.87367188 39.42992187 36.80859375 38.62109375 C36.00751491 31.74868053 34.87933351 27.75703406 29.65625 23.109375 C28.0552956 21.81449744 28.0552956 21.81449744 26 22 C26.66 22.886875 27.32 23.77375 28 24.6875 C29.98860067 27.98111986 30.43735074 29.28251873 30 33 C29.34 33 28.68 33 28 33 C27.59136719 32.26652344 27.18273437 31.53304687 26.76171875 30.77734375 C24.57911725 27.33647974 22.20776354 25.79549278 18.8125 23.5625 C17.64257446 22.77831962 16.47330227 21.99316364 15.3046875 21.20703125 C14.21414062 20.47871094 13.12359375 19.75039063 12 19 C2.4988831 12.37304542 2.4988831 12.37304542 0 8 C-0.30942289 5.24097924 -0.18926798 2.79170269 0 0 Z " fill="#04ABEA" transform="translate(120,35)"/>
<path d="M0 0 C8.51271556 4.12052668 16.85564256 8.58804121 25.18798828 13.05908203 C25.18798828 13.38908203 25.18798828 13.71908203 25.18798828 14.05908203 C16.86942328 14.69897165 10.45749147 12.34976287 2.68798828 9.55908203 C-10.81922912 4.95452895 -21.94516801 2.70904783 -35.81201172 7.05908203 C-28.65581675 -7.25330791 -12.37252108 -5.70058267 0 0 Z " fill="#04ABEB" transform="translate(75.81201171875,106.94091796875)"/>
<path d="M0 0 C7.95435483 0.91709032 14.48733237 3.86055724 21.58203125 7.34375 C26.73730426 9.84184801 30.21879813 11.26889311 36 11 C35.36191406 10.73445312 34.72382812 10.46890625 34.06640625 10.1953125 C33.24011719 9.84210938 32.41382813 9.48890625 31.5625 9.125 C30.73878906 8.77695313 29.91507813 8.42890625 29.06640625 8.0703125 C27 7 27 7 26 5 C26.69738281 5.15984375 27.39476563 5.3196875 28.11328125 5.484375 C37.09070164 7.08791964 45.51539014 6.21763986 54 3 C52.31847927 6.74020498 50.30960527 8.56134348 47 11 C49.475 11.495 49.475 11.495 52 12 C52 12.66 52 13.32 52 14 C45.91761524 18.74722713 39.54332101 19.16410192 31.9609375 18.35644531 C26.08702677 17.28872748 21.00888384 14.09650048 16 11 C15.3601416 10.60973633 14.7202832 10.21947266 14.06103516 9.81738281 C3.0568618 3.0568618 3.0568618 3.0568618 0 0 Z " fill="#04ACEC" transform="translate(59,123)"/>
<path d="M0 0 C2.49518885 2.49518885 2.95774014 4.57865474 4 7.9375 C5.08405499 11.42256741 5.96478972 13.94718459 8 17 C8.33 16.67 8.66 16.34 9 16 C11.61855483 15.84614141 14.19257763 15.76833716 16.8125 15.75 C17.53759766 15.729375 18.26269531 15.70875 19.00976562 15.6875 C22.37365506 15.66287867 24.59781802 15.75731476 27.51171875 17.515625 C28.24841797 18.25039062 28.24841797 18.25039062 29 19 C28.6875 20.875 28.6875 20.875 28 23 C27.01 23.66 26.02 24.32 25 25 C24.01 24.67 23.02 24.34 22 24 C20.65753688 24.64808564 19.32567199 25.31822584 18 26 C16.00889599 26.38290462 14.00899487 26.72604615 12 27 C12 26.01 12 25.02 12 24 C9.69 24.33 7.38 24.66 5 25 C4.81630859 23.90751953 4.81630859 23.90751953 4.62890625 22.79296875 C4.01298117 20.05764931 3.10810196 17.8509021 1.9375 15.3125 C-0.23294371 10.101868 -0.42715749 5.5767783 0 0 Z " fill="#CBC5C9" transform="translate(124,128)"/>
<path d="M0 0 C0.17273438 0.74636719 0.34546875 1.49273437 0.5234375 2.26171875 C2.65925047 6.22257825 5.58843984 7.12563491 9.625 8.8125 C10.33140625 9.12380859 11.0378125 9.43511719 11.765625 9.75585938 C13.503766 10.51923211 15.25106125 11.26170104 17 12 C16.00071382 14.72532595 15.34307772 15.80893395 12.76953125 17.2421875 C9.6212295 18.10364101 6.94690876 18.19663536 3.6875 18.125 C2.61886719 18.10695313 1.55023438 18.08890625 0.44921875 18.0703125 C-0.35902344 18.04710938 -1.16726562 18.02390625 -2 18 C-2.33 17.34 -2.66 16.68 -3 16 C-2.01 15.67 -1.02 15.34 0 15 C-2.31 14.01 -4.62 13.02 -7 12 C-7 11.34 -7 10.68 -7 10 C-5.68 10 -4.36 10 -3 10 C-3.33 9.34 -3.66 8.68 -4 8 C-3.34 7.67 -2.68 7.34 -2 7 C-3.32 6.01 -4.64 5.02 -6 4 C-5.67 3.01 -5.34 2.02 -5 1 C-3 0 -3 0 0 0 Z " fill="#BABFCA" transform="translate(145,101)"/>
<path d="M0 0 C-1.36676041 5.6378867 -5.48190069 8.74407434 -10 12 C-16.58252998 15.89215985 -24.92398745 16.29319557 -32.25390625 14.42578125 C-35.61379981 13.10006124 -36.96882684 12.04675975 -39 9 C-37.82824219 9.03480469 -36.65648438 9.06960937 -35.44921875 9.10546875 C-23.44377481 9.35872657 -13.12150353 9.37824938 -3.55859375 1.20703125 C-2 0 -2 0 0 0 Z " fill="#04AAE9" transform="translate(113,139)"/>
<path d="M0 0 C0.78117187 1.10021484 0.78117187 1.10021484 1.578125 2.22265625 C4.29391936 5.33705914 7.25497676 7.32627408 10.75 9.4375 C12.00121073 10.22072542 13.25121768 11.00587723 14.5 11.79296875 C15.40105469 12.35830322 15.40105469 12.35830322 16.3203125 12.93505859 C18.50422635 14.31968537 20.64289034 15.75100838 22.75 17.25 C23.34296875 17.66765625 23.9359375 18.0853125 24.546875 18.515625 C26.44277817 20.45230028 27.1306114 22.46002154 28 25 C2.01855991 11.35108347 2.01855991 11.35108347 -1 6 C-1.3125 3.25 -1.3125 3.25 -1 1 C-0.67 0.67 -0.34 0.34 0 0 Z " fill="#05A8E7" transform="translate(115,43)"/>
<path d="M0 0 C3.87132028 0.57352893 6.08172796 2.48704352 9 5 C8.34 3.68 7.68 2.36 7 1 C7.99 0.67 8.98 0.34 10 0 C12.2636564 1.40445835 14.0208685 3.1967913 16 5 C15.34 6.65 14.68 8.3 14 10 C12.58249437 9.88490339 11.16598831 9.75746342 9.75 9.625 C8.56664062 9.52058594 8.56664062 9.52058594 7.359375 9.4140625 C4.83830282 8.97162268 3.12028379 8.438764 1 7 C0.25 3.375 0.25 3.375 0 0 Z " fill="#05A7E6" transform="translate(129,125)"/>
<path d="M0 0 C-0.50603992 2.16874252 -0.99983813 3.99967627 -2 6 C-2.66 6 -3.32 6 -4 6 C-4 5.01 -4 4.02 -4 3 C-5.46184058 3.22860058 -6.91955419 3.48370392 -8.375 3.75 C-9.18710938 3.88921875 -9.99921875 4.0284375 -10.8359375 4.171875 C-13.17709092 4.81749261 -13.17709092 4.81749261 -14.2890625 7.078125 C-14.52367187 7.71234375 -14.75828125 8.3465625 -15 9 C-15.66 9 -16.32 9 -17 9 C-17 7.35 -17 5.7 -17 4 C-19.64 4 -22.28 4 -25 4 C-25.33 3.34 -25.66 2.68 -26 2 C-24.95199219 1.86722656 -23.90398437 1.73445313 -22.82421875 1.59765625 C-21.44529222 1.41942765 -20.06638707 1.24103359 -18.6875 1.0625 C-17.65206055 0.93198242 -17.65206055 0.93198242 -16.59570312 0.79882812 C-4.91348157 -0.7249399 -4.91348157 -0.7249399 0 0 Z " fill="#B9B3B9" transform="translate(167,121)"/>
<path d="M0 0 C0.33 0.66 0.66 1.32 1 2 C6.14101356 3.15681364 6.14101356 3.15681364 11 2 C11 3.65 11 5.3 11 7 C10.01 7.495 10.01 7.495 9 8 C8.10796875 7.69835937 7.2159375 7.39671875 6.296875 7.0859375 C1.8034915 5.60588938 -2.47227702 5.65708893 -7.171875 5.5390625 C-10 5 -10 5 -11.390625 2.9609375 C-11.59171875 2.31382812 -11.7928125 1.66671875 -12 1 C-10.95199219 1.14308594 -10.95199219 1.14308594 -9.8828125 1.2890625 C-8.97273437 1.39992187 -8.06265625 1.51078125 -7.125 1.625 C-5.76761719 1.79902344 -5.76761719 1.79902344 -4.3828125 1.9765625 C-3.59648437 1.98429688 -2.81015625 1.99203125 -2 2 C-1.34 1.34 -0.68 0.68 0 0 Z " fill="#CDC4C6" transform="translate(145,135)"/>
<path d="M0 0 C4.03837057 0.26481119 6.35406471 1.22555008 9.8125 3.25 C10.1425 2.59 10.4725 1.93 10.8125 1.25 C10.8125 5.51826873 10.43636487 6.18882432 7.8125 9.25 C4.10078073 8.01276024 2.5571651 5.9946651 -0.1875 3.25 C-2.35370544 1.95480005 -2.35370544 1.95480005 -4.1875 1.25 C-3.1875 0.25 -3.1875 0.25 0 0 Z " fill="#2D3B62" transform="translate(134.1875,83.75)"/>
<path d="M0 0 C0.33 0 0.66 0 1 0 C1.31215868 3.98002315 1.36368076 6.3565648 -0.625 9.875 C-3.44287976 12.39626084 -5.27830274 12.74624791 -9 13 C-8.60167969 12.48050781 -8.20335938 11.96101562 -7.79296875 11.42578125 C-4.97131746 7.71163685 -2.38349708 4.01431087 0 0 Z " fill="#05A5E4" transform="translate(113,145)"/>
<path d="M0 0 C0.99 0 1.98 0 3 0 C4.125 5.625 4.125 5.625 3 9 C1.02 9 -0.96 9 -3 9 C-2.44271087 5.65626525 -1.64826111 2.96687001 0 0 Z " fill="#B1B4BF" transform="translate(167,108)"/>
<path d="M0 0 C2.46301423 2.46301423 2.76766521 4.27360036 3.625 7.625 C3.88539062 8.62789062 4.14578125 9.63078125 4.4140625 10.6640625 C4.60742188 11.43492187 4.80078125 12.20578125 5 13 C4.34 13 3.68 13 3 13 C2.67 13.66 2.34 14.32 2 15 C-0.59227518 10.13948404 -0.18689553 5.34728867 0 0 Z " fill="#A3A6B5" transform="translate(124,128)"/>
<path d="M0 0 C0.99 0.33 1.98 0.66 3 1 C2.67 2.32 2.34 3.64 2 5 C1.34 5 0.68 5 0 5 C-0.99 5.33 -1.98 5.66 -3 6 C-5.3406065 5.72230092 -7.67624308 5.39460023 -10 5 C-9.67 4.34 -9.34 3.68 -9 3 C-6.93734178 2.6088062 -4.90556733 2.49325481 -2.8125 2.34375 C-2.214375 2.2303125 -1.61625 2.116875 -1 2 C-0.67 1.34 -0.34 0.68 0 0 Z " fill="#334267" transform="translate(144,132)"/>
<path d="M0 0 C1.175625 0.0825 2.35125 0.165 3.5625 0.25 C4.2225 1.24 4.8825 2.23 5.5625 3.25 C2.9225 3.58 0.2825 3.91 -2.4375 4.25 C-2.7675 5.24 -3.0975 6.23 -3.4375 7.25 C-4.4375 6.25 -4.4375 6.25 -4.5625 3.75 C-4.36915738 -0.11685232 -3.99824329 0.29078133 0 0 Z " fill="#AAADBA" transform="translate(100.4375,74.75)"/>
<path d="M0 0 C3 1 3 1 4 3 C2.21189234 3.69670416 0.41937948 4.38211189 -1.375 5.0625 C-2.37273438 5.44535156 -3.37046875 5.82820313 -4.3984375 6.22265625 C-7 7 -7 7 -9 6 C-7.57140593 4.96674014 -6.13177617 3.94872366 -4.6875 2.9375 C-3.88699219 2.36902344 -3.08648437 1.80054687 -2.26171875 1.21484375 C-1.51535156 0.81394531 -0.76898438 0.41304688 0 0 Z " fill="#079BD8" transform="translate(54,94)"/>
<path d="M0 0 C0.66 0.33 1.32 0.66 2 1 C0.73882275 4.88862987 -0.45264167 6.89375599 -4 9 C-4.66 9 -5.32 9 -6 9 C-5.52797514 4.75177626 -3.03344482 2.80010291 0 0 Z " fill="#283B63" transform="translate(113,152)"/>
<path d="M0 0 C7.625 0.625 7.625 0.625 11 4 C8.03 4 5.06 4 2 4 C1.34 2.68 0.68 1.36 0 0 Z " fill="#ADA8B2" transform="translate(133,136)"/>
<path d="M0 0 C1.98 1.65 3.96 3.3 6 5 C4.02 5.99 4.02 5.99 2 7 C0 5.625 0 5.625 -2 4 C-2 3.34 -2 2.68 -2 2 C-1.34 2 -0.68 2 0 2 C0 1.34 0 0.68 0 0 Z " fill="#4F5B7A" transform="translate(138,103)"/>
<path d="M0 0 C0 0.66 0 1.32 0 2 C-3.63 2 -7.26 2 -11 2 C-7.72338241 -1.27661759 -4.29690696 -1.43230232 0 0 Z " fill="#184473" transform="translate(93,61)"/>
<path d="M0 0 C0.66 0 1.32 0 2 0 C2 0.66 2 1.32 2 2 C3.98 1.67 5.96 1.34 8 1 C6.02579865 3.52259061 5.03254358 3.9929808 1.8125 4.6875 C0.4203125 4.8421875 0.4203125 4.8421875 -1 5 C-0.67 3.35 -0.34 1.7 0 0 Z " fill="#BAC0CC" transform="translate(137,150)"/>
<path d="M0 0 C-1 2 -1 2 -3 3 C-2.34 3.66 -1.68 4.32 -1 5 C-2.98 5.33 -4.96 5.66 -7 6 C-7 5.34 -7 4.68 -7 4 C-7.66 3.67 -8.32 3.34 -9 3 C-3.375 0 -3.375 0 0 0 Z " fill="#3A4669" transform="translate(164,115)"/>
<path d="M0 0 C0 1.65 0 3.3 0 5 C-2 6 -2 6 -5.125 5.0625 C-6.07375 4.711875 -7.0225 4.36125 -8 4 C-7.360625 3.87625 -6.72125 3.7525 -6.0625 3.625 C-5.0415625 3.315625 -5.0415625 3.315625 -4 3 C-3.67 2.34 -3.34 1.68 -3 1 C-1 0 -1 0 0 0 Z " fill="#A7A4AE" transform="translate(156,137)"/>
<path d="M0 0 C0.33 0.99 0.66 1.98 1 3 C1.66 3 2.32 3 3 3 C3.33 2.34 3.66 1.68 4 1 C4.33 1.99 4.66 2.98 5 4 C2 6 2 6 -1 6 C-1.042721 4.33388095 -1.04063832 2.66617115 -1 1 C-0.67 0.67 -0.34 0.34 0 0 Z " fill="#2C3A60" transform="translate(162,124)"/>
<path d="M0 0 C5.4611399 0.35233161 5.4611399 0.35233161 8 1 C9.5 3.0625 9.5 3.0625 10 5 C2.42857143 3.14285714 2.42857143 3.14285714 0 0 Z " fill="#7E8699" transform="translate(154,85)"/>
<path d="M0 0 C0.99 0.33 1.98 0.66 3 1 C3.73046875 3.06640625 3.73046875 3.06640625 4.1875 5.5625 C4.34605469 6.38878906 4.50460938 7.21507813 4.66796875 8.06640625 C4.77753906 8.70449219 4.88710937 9.34257813 5 10 C0.07692308 5.69230769 0.07692308 5.69230769 -0.3125 2.1875 C-0.209375 1.465625 -0.10625 0.74375 0 0 Z " fill="#B2B8C5" transform="translate(107,101)"/>
<path d="M0 0 C0 0.33 0 0.66 0 1 C-1.258125 1.04125 -2.51625 1.0825 -3.8125 1.125 C-4.52019531 1.14820313 -5.22789063 1.17140625 -5.95703125 1.1953125 C-8 1 -8 1 -11 -1 C-6.99799622 -2.60080151 -3.95443764 -1.29279692 0 0 Z " fill="#135E90" transform="translate(97,134)"/>
<path d="M0 0 C0.66 0.33 1.32 0.66 2 1 C2 1.99 2 2.98 2 4 C1.34 4 0.68 4 0 4 C-0.33 4.99 -0.66 5.98 -1 7 C-1.66 7 -2.32 7 -3 7 C-1.125 1.125 -1.125 1.125 0 0 Z " fill="#B8B2B9" transform="translate(155,129)"/>
<path d="M0 0 C0.99 0 1.98 0 3 0 C2.25 1.9375 2.25 1.9375 1 4 C-1.125 4.75 -1.125 4.75 -3 5 C-1.125 1.125 -1.125 1.125 0 0 Z " fill="#C6BFC3" transform="translate(159,113)"/>
<path d="M0 0 C1.98 0.495 1.98 0.495 4 1 C4 2.32 4 3.64 4 5 C2.68 4.34 1.36 3.68 0 3 C0 2.01 0 1.02 0 0 Z " fill="#828A9C" transform="translate(99,81)"/>
</svg>
